<svg xmlns="http://www.w3.org/2000/svg" viewBox="0 0 444.98 275.04"><defs><style>.cls-1{fill:#3f4b80}.cls-2{fill:#313a62}.cls-3{fill:#4b5897}.cls-4{fill:#5161a4}.cls-5{fill:#1f243e}.cls-6{fill:#495692}.cls-7{fill:#5d6cac}.cls-8{fill:#4f60a3}</style></defs><title>bull</title><g id="Layer_2" data-name="Layer 2"><g id="Layer_1-2" data-name="Layer 1"><polygon points="378.34 43.78 360.02 30.55 402.82 8.96 378.34 43.78" class="cls-1"/><polygon points="269.51 0 322.75 27.42 329.15 71.65 269.51 0" class="cls-2"/><polygon points="329.15 71.65 320.73 109.26 269.51 0 329.15 71.65" class="cls-1"/><polygon points="320.73 109.26 239.1 6.21 269.65 .17 320.73 109.26" class="cls-3"/><polygon points="320.73 109.26 232.21 74.58 239.1 6.21 320.73 109.26" class="cls-4"/><polygon points="239.1 6.21 232.21 74.58 140.96 87.44 239.1 6.21" class="cls-3"/><polygon points="320.73 109.26 223.12 135.72 232.21 74.58 320.73 109.26" class="cls-3"/><polygon points="223.12 135.72 320.73 109.26 276.69 129.7 223.12 135.72" class="cls-1"/><polygon points="169.19 144.94 223.12 135.72 224.04 154.16 169.19 144.94" class="cls-1"/><polygon points="224.04 154.16 223.12 135.72 276.69 129.7 224.04 154.16" class="cls-2"/><polygon points="140.96 87.44 232.21 74.58 223.12 135.72 140.96 87.44" class="cls-1"/><polygon points="140.96 87.44 223.12 135.72 169.19 144.94 140.96 87.44" class="cls-3"/><polygon points="140.96 87.44 169.19 144.94 141.98 164.77 140.96 87.44" class="cls-2"/><polygon points="94.72 102.94 105.56 168.46 75.6 123.28 94.72 102.94" class="cls-4"/><polygon points="41.02 123.74 75.6 123.28 75.79 144.46 41.02 123.74" class="cls-2"/><polygon points="43.79 138.03 41.02 123.74 75.79 144.46 43.79 138.03" class="cls-1"/><polygon points="43.79 138.03 23.97 155.54 41.02 123.74 43.79 138.03" class="cls-3"/><polygon points="23.97 155.54 22.59 166.16 0 162.47 23.97 155.54" class="cls-2"/><polygon points="23.97 155.54 43.79 138.03 22.59 166.16 23.97 155.54" class="cls-4"/><polygon points="75.6 123.28 105.56 168.46 75.79 174.35 75.6 123.28" class="cls-1"/><polygon points="84.42 207.9 62.66 252.84 59.47 218.25 84.42 207.9" class="cls-1"/><polygon points="59.47 218.25 62.66 252.84 50.21 258.84 59.47 218.25" class="cls-5"/><polygon points="62.66 252.84 66 269.73 40.16 275.04 62.66 252.84" class="cls-1"/><polygon points="50.21 258.84 62.66 252.84 40.16 275.04 50.21 258.84" class="cls-2"/><polygon points="75.79 174.35 105.56 168.46 59.47 218.25 75.79 174.35" class="cls-2"/><polygon points="105.56 168.46 125.85 191.51 59.47 218.25 105.56 168.46" class="cls-3"/><polygon points="94.72 102.94 140.96 87.44 105.56 168.46 94.72 102.94" class="cls-3"/><polygon points="105.56 168.46 140.96 87.44 141.98 164.77 105.56 168.46" class="cls-1"/><polygon points="125.85 191.51 105.56 168.46 141.98 164.77 125.85 191.51" class="cls-2"/><polygon points="276.69 129.7 319.57 129.41 292.23 171.24 276.69 129.7" class="cls-3"/><polygon points="276.69 129.7 320.73 109.26 319.57 129.41 276.69 129.7" class="cls-4"/><polygon points="268.31 166.76 276.69 129.7 292.23 171.24 268.31 166.76" class="cls-1"/><polygon points="257.96 186.16 268.31 166.76 292.23 171.24 257.96 186.16" class="cls-3"/><polygon points="237.22 200 243.67 168.19 268.31 166.76 237.22 200" class="cls-1"/><polygon points="237.22 200 268.31 166.76 257.96 186.16 237.22 200" class="cls-2"/><polygon points="360.02 30.55 400.8 1.91 402.82 8.96 360.02 30.55" class="cls-6"/><polygon points="400.8 1.91 434.21 .26 402.82 8.96 400.8 1.91" class="cls-7"/><polygon points="379.35 67.22 360.81 54.16 423.66 54.2 379.35 67.22" class="cls-8"/><polygon points="360.81 54.16 414.87 47.16 423.66 54.2 360.81 54.16" class="cls-6"/><polygon points="414.87 47.16 439.66 25.42 423.66 54.2 414.87 47.16" class="cls-1"/><polygon points="423.66 54.2 439.66 25.42 444.98 27.89 423.66 54.2" class="cls-8"/><polygon points="439.66 25.42 444.08 12.96 444.98 27.89 439.66 25.42" class="cls-2"/><polygon points="329.15 71.65 335.2 124.19 320.73 109.26 329.15 71.65" class="cls-2"/><polygon points="335.2 124.19 329.15 71.65 379.35 67.22 335.2 124.19" class="cls-1"/><polygon points="379.35 67.22 329.15 71.65 322.75 27.42 379.35 67.22" class="cls-3"/><polygon points="378.34 43.78 386.35 51.12 360.81 54.16 378.34 43.78" class="cls-2"/><polygon points="322.75 27.42 378.34 43.78 360.81 54.16 322.75 27.42" class="cls-1"/><polygon points="322.75 27.42 360.02 30.55 378.34 43.78 322.75 27.42" class="cls-2"/><polygon points="377.05 150.44 379.35 67.22 399.44 83.53 377.05 150.44" class="cls-1"/><polygon points="377.05 150.44 379.35 67.22 335.2 124.19 377.05 150.44" class="cls-6"/><polygon points="399.44 83.53 393 62.75 379.35 67.22 399.44 83.53" class="cls-2"/><polygon points="402.1 138.93 377.05 150.44 399.44 83.53 402.1 138.93" class="cls-2"/></g></g></svg>