<svg xmlns="http://www.w3.org/2000/svg" xmlns:xlink="http://www.w3.org/1999/xlink" width="607" height="438" version="1.1" viewBox="0 0 607 438"><title>Terminal 2</title><desc>Created with Sketch.</desc><defs><filter id="filter-1" width="125.5%" height="137.5%" x="-12.7%" y="-13.8%" filterUnits="objectBoundingBox"><feOffset dx="0" dy="18" in="SourceAlpha" result="shadowOffsetOuter1"/><feGaussianBlur in="shadowOffsetOuter1" result="shadowBlurOuter1" stdDeviation="19.5"/><feColorMatrix in="shadowBlurOuter1" result="shadowMatrixOuter1" type="matrix" values="0 0 0 0 0 0 0 0 0 0 0 0 0 0 0 0 0 0 0.210711051 0"/><feMerge><feMergeNode in="shadowMatrixOuter1"/><feMergeNode in="SourceGraphic"/></feMerge></filter></defs><g id="Page-1" fill="none" fill-rule="evenodd" stroke="none" stroke-width="1"><g id="How-Polymath-Works" transform="translate(-720.000000, -453.000000)"><g id="Terminal-2" filter="url(#filter-1)" transform="translate(759.000000, 474.000000)"><g id="Terminal"><rect id="Rectangle" width="526.905" height="357.705" x="1.147" y="1.147" fill="#FFF" stroke="#D8D8D8" stroke-width="2.295" rx="3.808"/><path id="Rectangle-2" fill="#D8D8D8" d="M3.80823391,0 L525.057268,-4.4408921e-16 C527.160498,-8.30446203e-16 528.865502,1.7050044 528.865502,3.80823391 L528.865502,21.897345 L0,21.897345 L0,3.80823391 C-2.57571329e-16,1.7050044 1.7050044,2.16271383e-15 3.80823391,1.77635684e-15 Z"/><circle id="Oval" cx="14.281" cy="10.473" r="5.712" fill="#FF5F57"/><circle id="Oval" cx="33.322" cy="10.473" r="5.712" fill="#FFBD2F"/><circle id="Oval" cx="52.363" cy="10.473" r="5.712" fill="#27CA41"/><text id="//transfer,-transfer" font-family="CourierNewPSMT, Courier New" font-size="10.8" font-weight="normal" opacity=".2"><tspan x="21.897" y="83.995" fill="#000">//transfer, transferFrom must respect the result of verifyTransfer</tspan> <tspan x="21.897" y="95.995" fill="#000"> </tspan> <tspan x="47.822" y="95.995" fill="#D16FE0">function</tspan> <tspan x="99.67" y="95.995" fill="#000"> </tspan> <tspan x="106.151" y="95.995" fill="#4F9FE9">verifyTransfer</tspan> <tspan x="196.886" y="95.995" fill="#000">(</tspan> <tspan x="203.367" y="95.995" fill="#C89565">address</tspan> <tspan x="248.734" y="95.995" fill="#000"> _from, </tspan> <tspan x="300.583" y="95.995" fill="#D89C62">address</tspan> <tspan x="345.95" y="95.995" fill="#000"> _to, uint256 _amount) </tspan> <tspan x="21.897" y="107.995" fill="#000"> public view returns (bool success);</tspan></text><text id="contract-ST20-is-ERC" fill="#000" font-family="CourierNewPSMT, Courier New" font-size="10.8" font-weight="normal"><tspan x="22" y="60">contract ST20 is ERC20 {</tspan></text><text id="//any-increases-to-t" font-family="CourierNewPSMT, Courier New" font-size="10.8" font-weight="normal"><tspan x="55.8" y="141.3" fill="#000">//any increases to totalSupply must happen in mint</tspan> <tspan x="55.8" y="153.3" fill="#000"> </tspan> <tspan x="81.724" y="153.3" fill="#D16FE0">function</tspan> <tspan x="133.573" y="153.3" fill="#000"> </tspan> <tspan x="140.054" y="153.3" fill="#4F9FE9">mint</tspan> <tspan x="165.978" y="153.3" fill="#000">(</tspan> <tspan x="172.459" y="153.3" fill="#C89565">address</tspan> <tspan x="217.826" y="153.3" fill="#000"> _investor, </tspan> <tspan x="295.599" y="153.3" fill="#D89C62">uint256</tspan> <tspan x="340.966" y="153.3" fill="#000"> _amount) </tspan> <tspan x="405.777" y="153.3" fill="#CB64DC">public </tspan> <tspan x="55.8" y="165.3" fill="#CB64DC"> returns </tspan> <tspan x="135.648" y="165.3" fill="#000">(</tspan> <tspan x="142.129" y="165.3" fill="#D39157">bool</tspan> <tspan x="168.054" y="165.3" fill="#000"> success);</tspan> <tspan x="55.8" y="189.3" fill="#000"> //any decreases to totalSupply must happen in mint</tspan> <tspan x="55.8" y="201.3" fill="#000"> </tspan> <tspan x="81.724" y="201.3" fill="#CB64DC">function</tspan> <tspan x="133.573" y="201.3" fill="#000"> </tspan> <tspan x="140.054" y="201.3" fill="#4595E6">burn</tspan> <tspan x="165.978" y="201.3" fill="#000">(</tspan> <tspan x="172.459" y="201.3" fill="#C18A5A">address</tspan> <tspan x="217.826" y="201.3" fill="#000"> _investor, </tspan> <tspan x="295.599" y="201.3" fill="#D39157">uint256</tspan> <tspan x="340.966" y="201.3" fill="#000"> _amount) </tspan> <tspan x="405.777" y="201.3" fill="#C459CC">public </tspan> <tspan x="55.8" y="213.3" fill="#C459CC"> returns</tspan> <tspan x="129.167" y="213.3" fill="#000"> (</tspan> <tspan x="142.129" y="213.3" fill="#CD864D">bool</tspan> <tspan x="168.054" y="213.3" fill="#000"> success);</tspan> <tspan x="55.8" y="237.3" fill="#000"> //must be emited on any increase to totalSupply</tspan> <tspan x="55.8" y="249.3" fill="#000"> </tspan> <tspan x="81.724" y="249.3" fill="#C459D7">event</tspan> <tspan x="114.129" y="249.3" fill="#000"> </tspan> <tspan x="120.611" y="249.3" fill="#3C8AE2">Minted</tspan> <tspan x="159.497" y="249.3" fill="#000">(</tspan> <tspan x="165.978" y="249.3" fill="#B97F50">address</tspan> <tspan x="211.345" y="249.3" fill="#000"> indexed investor, </tspan> <tspan x="334.485" y="249.3" fill="#CD864D">uint256</tspan> <tspan x="379.853" y="249.3" fill="#000"> amount);</tspan> <tspan x="55.8" y="261.3" fill="#000"> //must be emited on any decrease to totalSupply</tspan> <tspan x="55.8" y="273.3" fill="#000"> </tspan> <tspan x="81.724" y="273.3" fill="#BC4FD1">event</tspan> <tspan x="114.129" y="273.3" fill="#000"> </tspan> <tspan x="120.611" y="273.3" fill="#347FDE">Burnt</tspan> <tspan x="153.016" y="273.3" fill="#000">(</tspan> <tspan x="159.497" y="273.3" fill="#B07347">address</tspan> <tspan x="204.864" y="273.3" fill="#000"> indexed investor, </tspan> <tspan x="328.004" y="273.3" fill="#C67A44">uint256</tspan> <tspan x="373.372" y="273.3" fill="#000"> amount);</tspan> <tspan x="55.8" y="297.3" fill="#000">}</tspan></text></g></g></g></g></svg>